<?xml version="1.0" ?><!DOCTYPE svg  PUBLIC '-//W3C//DTD SVG 1.1//EN'  'http://www.w3.org/Graphics/SVG/1.1/DTD/svg11.dtd'><svg enable-background="new 0 0 512 512" id="Layer_1" version="1.1" viewBox="0 0 512 512" xml:space="preserve" xmlns="http://www.w3.org/2000/svg" xmlns:xlink="http://www.w3.org/1999/xlink"><g><path d="M56.1,216.3c0-68.8,0-137.7,0-206.5c0-6.9,0.1-6.8,6.6-4.6c30.1,10.3,60.2,20.5,90.3,30.7   c5.2,1.8,10.3,3.8,15.6,5.3c3.5,1,3.6,3.1,3.6,6c-0.1,25.5-0.4,51,0.1,76.5c0.9,51.3,0.2,102.6,1.1,153.9   c0.5,27.3,0.3,54.6,0.5,81.9c0,4.7,1.1,4.9,4.9,2.9c43.9-23.1,87.8-46.2,131.7-69.2c6.3-3.3,12.7-6.6,19-9.9c1.3-0.7,3.2-1,3.1-2.8   c-0.1-1.4-2-1.6-3.2-2.1c-22.7-10.3-45.4-20.7-68.2-30.9c-1.8-0.8-3.2-1.5-4-3.4c-16-34.8-32-69.6-47.9-104.3   c-0.6-1.3-2.1-2.7-0.8-4c1.2-1.3,2.8,0.1,4.2,0.5c37.4,11.4,74.8,22.7,112.1,34.1c37.8,11.6,75.6,23.3,113.4,35   c6.4,2,12.7,4,19.1,5.8c2.8,0.8,4,2,4,5.2c-0.1,39-0.1,78,0,117c0,2.9-1,4.5-3.5,6c-57.2,34-114.5,68-171.6,102   c-36.9,22-73.8,43.9-110.6,66c-3.1,1.8-5.1,1.7-8-0.3c-36.2-25.5-72.4-50.9-108.7-76.2c-2.8-1.9-2.8-4.1-2.8-6.8   c0-66.2,0-132.3,0-198.5C56.1,222.3,56.1,219.3,56.1,216.3z" fill="#A7A7A7"/></g></svg>